HIERARCHY
ROOT SpineBase
{
  OFFSET 0.000000 0.000000 0.000000
  CHANNELS 6 Xposition Yposition Zposition Zrotation Xrotation Yrotation
  JOINT SpineMid
  {
    OFFSET 0.000000 30.961067 0.000000
    CHANNELS 3 Zrotation Xrotation Yrotation
    JOINT SpineShoulder
    {
      OFFSET -0.239865 22.985558 -1.135354
      CHANNELS 3 Zrotation Xrotation Yrotation
      JOINT Neck
      {
        OFFSET -0.121108 7.608515 -0.723409
        CHANNELS 3 Zrotation Xrotation Yrotation
        JOINT Head
        {
          OFFSET 4.738170 13.018774 4.992882
          CHANNELS 3 Zrotation Xrotation Yrotation
          End Site
          {
            OFFSET 0 0 0
          }
        }
      }
      JOINT ShoulderLeft
      {
        OFFSET -10.607428 -2.439975 -11.546631
        CHANNELS 3 Zrotation Xrotation Yrotation
        JOINT ElbowLeft
        {
          OFFSET -7.719188 -23.231492 -8.620390
          CHANNELS 3 Zrotation Xrotation Yrotation
          JOINT WristLeft
          {
            OFFSET 3.395946 -21.268330 -10.387037
            CHANNELS 3 Zrotation Xrotation Yrotation
            JOINT HandLeft
            {
              OFFSET 0.858899 -7.062243 -2.642180
              CHANNELS 3 Zrotation Xrotation Yrotation
              JOINT HandTipLeft
              {
                OFFSET 1.744968 -7.774323 -2.203974
                CHANNELS 3 Zrotation Xrotation Yrotation
                End Site
                {
                  OFFSET 0 0 0
                }
              }
              JOINT ThumbLeft
              {
                OFFSET 4.189411 -0.647581 1.965526
                CHANNELS 3 Zrotation Xrotation Yrotation
                End Site
                {
                  OFFSET 0 0 0
                }
              }
            }
          }
        }
      }
      JOINT ShoulderRight
      {
        OFFSET 12.415157 -5.682438 10.928420
        CHANNELS 3 Zrotation Xrotation Yrotation
        JOINT ElbowRight
        {
          OFFSET 2.835895 -27.691700 3.111088
          CHANNELS 3 Zrotation Xrotation Yrotation
          JOINT WristRight
          {
            OFFSET 0.703268 -22.201341 -2.249882
            CHANNELS 3 Zrotation Xrotation Yrotation
            JOINT HandRight
            {
              OFFSET -2.363375 -7.313002 0.464558
              CHANNELS 3 Zrotation Xrotation Yrotation
              JOINT HandTipRight
              {
                OFFSET 0.116586 -7.986092 -0.223274
                CHANNELS 3 Zrotation Xrotation Yrotation
                End Site
                {
                  OFFSET 0 0 0
                }
              }
              JOINT ThumbRight
              {
                OFFSET -1.258602 -4.501092 -2.661670
                CHANNELS 3 Zrotation Xrotation Yrotation
                End Site
                {
                  OFFSET 0 0 0
                }
              }
            }
          }
        }
      }
    }
  }
  JOINT HipLeft
  {
    OFFSET -4.554590 1.488754 -7.861962
    CHANNELS 3 Zrotation Xrotation Yrotation
    JOINT KneeLeft
    {
      OFFSET -10.486374 -34.928395 -8.711863
      CHANNELS 3 Zrotation Xrotation Yrotation
      JOINT AnkleLeft
      {
        OFFSET -7.826837 -40.142782 4.716994
        CHANNELS 3 Zrotation Xrotation Yrotation
        JOINT FootLeft
        {
          OFFSET 0.651999 -7.739000 -6.595526
          CHANNELS 3 Zrotation Xrotation Yrotation
          End Site
          {
            OFFSET 0 0 0
          }
        }
      }
    }
  }
  JOINT HipRight
  {
    OFFSET 5.388736 0.058702 0.944503
    CHANNELS 3 Zrotation Xrotation Yrotation
    JOINT KneeRight
    {
      OFFSET -7.104574 -38.909282 1.157297
      CHANNELS 3 Zrotation Xrotation Yrotation
      JOINT AnkleRight
      {
        OFFSET -9.373564 -38.192422 11.908730
        CHANNELS 3 Zrotation Xrotation Yrotation
        JOINT FootRight
        {
          OFFSET 4.362019 -7.270701 -6.113621
          CHANNELS 3 Zrotation Xrotation Yrotation
          End Site
          {
            OFFSET 0 0 0
          }
        }
      }
    }
  }
}
MOTION
Frames: 6
Frame Time: 0.033333
-41.519509 88.215050 337.167714 -1.222649 -0.078883 -50.930400 -1.711017 0.033022 50.845961 -0.787590 0.386463 -0.164458 1.640449 0.746735 -0.026797 0.000000 0.000000 0.000000 -19.234692 50.086244 0.457271 1.769195 38.542109 33.349360 12.980846 39.030358 0.703855 -4.430369 -20.716565 10.843322 0.000000 0.000000 0.000000 0.000000 0.000000 0.000000 47.106863 -34.991843 15.846017 61.837195 -24.343794 -20.522810 25.965865 14.809349 50.861689 -19.701667 14.889069 -53.141095 0.000000 0.000000 0.000000 0.000000 0.000000 0.000000 13.317164 -2.828665 53.660503 -4.795742 7.961813 -1.147637 0.876918 -3.489223 -2.283098 0.000000 0.000000 0.000000 11.373113 6.359564 51.466270 -7.890353 5.194011 -0.152322 0.049518 0.167994 -3.083449 0.000000 0.000000 0.000000
-40.865947 88.681894 337.776846 -0.834856 -0.282526 -51.689853 -1.740686 -0.047496 51.614126 -0.811569 0.388522 -0.152706 1.633278 0.924724 -0.153921 0.000000 0.000000 0.000000 -21.904566 52.591491 1.864099 0.449478 50.676831 38.974924 17.866037 33.867614 2.494108 -12.520781 -20.627736 6.646740 0.000000 0.000000 0.000000 0.000000 0.000000 0.000000 53.040028 -36.698181 19.154309 64.508615 -26.943748 -23.341510 19.582860 17.081394 63.329052 -14.472311 11.971281 -67.365645 0.000000 0.000000 0.000000 0.000000 0.000000 0.000000 12.011903 -2.960665 54.402901 -4.284975 7.487400 -1.242404 0.590971 -3.458329 -1.795121 0.000000 0.000000 0.000000 9.853421 5.877761 52.226621 -6.998767 4.793454 -0.147914 -7.946955 -8.702139 -2.204484 0.000000 0.000000 0.000000
-40.097984 89.163898 338.445062 -0.391173 -0.512747 -52.606909 -1.747909 -0.107584 52.545620 -0.812282 0.376706 -0.135268 1.952224 1.154698 -0.464307 0.000000 0.000000 0.000000 -28.084133 55.728786 5.778118 2.597153 60.582969 44.378800 16.000633 27.903767 2.919484 -13.498680 -18.985932 7.921511 0.000000 0.000000 0.000000 0.000000 0.000000 0.000000 60.058247 -38.534981 23.370229 66.237157 -29.007845 -28.288427 10.827853 17.797157 85.653395 -9.417404 7.421598 -88.592773 0.000000 0.000000 0.000000 0.000000 0.000000 0.000000 10.589108 -3.185457 55.325566 -3.705695 6.981670 -1.356411 0.614787 -3.410965 -1.563852 0.000000 0.000000 0.000000 8.090092 5.402671 53.109170 -6.063314 4.206243 -0.113424 -14.191127 -15.344852 -2.117524 0.000000 0.000000 0.000000
-39.347208 89.572787 339.037290 0.036748 -0.712186 -53.493424 -1.715281 -0.154055 53.449324 -0.806032 0.358621 -0.116552 2.106471 1.583145 -0.800808 0.000000 0.000000 0.000000 -35.869779 57.953431 11.154648 4.280859 68.945576 50.450673 13.792348 20.250611 4.253199 -8.897352 -15.505468 15.121301 0.000000 0.000000 0.000000 0.000000 0.000000 0.000000 66.401152 -40.119230 27.503970 67.514314 -31.020206 -34.029306 1.420497 15.366413 114.416353 -5.427649 -0.365363 -121.599408 0.000000 0.000000 0.000000 0.000000 0.000000 0.000000 9.347978 -3.495316 56.248805 -3.160380 6.603421 -1.481154 0.775302 -3.461812 -1.486902 0.000000 0.000000 0.000000 6.475477 4.967124 53.945938 -5.283868 3.582981 -0.061528 -16.980000 -18.120824 -2.072590 0.000000 0.000000 0.000000
-38.657967 89.891645 339.498835 0.398841 -0.849966 -54.044771 -0.922208 0.176180 54.049147 -1.489925 0.717539 -0.121014 2.197529 2.146933 -1.173901 0.000000 0.000000 0.000000 -48.302591 59.432376 20.261106 11.229452 73.061226 53.557877 12.468493 18.238878 3.703124 -3.567992 -13.561203 23.286904 0.000000 0.000000 0.000000 0.000000 0.000000 0.000000 73.574626 -41.575880 32.423559 65.776520 -32.269825 -39.971739 -3.814435 6.511349 157.623682 -7.808805 -8.790608 -172.052417 0.000000 0.000000 0.000000 0.000000 0.000000 0.000000 8.372113 -3.875596 56.859086 -2.692078 6.337226 -1.600664 0.694354 -3.260070 -1.204633 0.000000 0.000000 0.000000 5.180807 4.544588 54.447880 -4.708043 3.059007 -0.027104 -16.638509 -17.673218 -1.630134 0.000000 0.000000 0.000000
-38.158537 90.159778 339.780587 0.542043 -0.830760 -54.372633 -0.990998 0.043310 54.376938 -1.240177 0.644495 -0.100756 2.502057 2.516578 -1.530107 0.000000 0.000000 0.000000 -58.274585 60.257415 27.782016 11.618839 77.495910 60.796109 17.091962 16.320167 9.599829 -1.018148 -12.894049 30.949578 0.000000 0.000000 0.000000 0.000000 0.000000 0.000000 80.001499 -42.698637 37.099706 66.729014 -34.664104 -48.374980 -1.112924 -7.639424 -147.925602 -17.580534 -14.129116 118.146926 0.000000 0.000000 0.000000 0.000000 0.000000 0.000000 8.050700 -4.129469 57.246226 -2.533491 6.398456 -1.700427 0.639112 -3.084167 -0.927289 0.000000 0.000000 0.000000 4.537599 4.249960 54.744453 -4.453214 2.765527 -0.038334 -12.404071 -12.873653 -0.631173 0.000000 0.000000 0.000000
